<?xml version="1.0" encoding="utf-8"?>
<svg viewBox="0 0 50 50" width="25px" height="25px" xmlns="http://www.w3.org/2000/svg">
  <path d="M 25 7 C 16.47 7 11 12.148 11 21.088 L 11 26.059 C 11 26.059 10.176 27.043 10.176 28.723 C 10.176 30.973 11.909 32.185 13.141 32.826 C 14.547 39.015 21.294 43 25 43 C 28.706 43 35.453 39.015 36.859 32.826 C 38.091 32.185 39.824 30.697 39.824 28.447 C 39.824 26.767 39 26.059 39 26.059 L 39 21.088 C 38.96 10.554 32.645 10.077 32.924 9.938 C 32.924 9.938 29.804 7 25 7 Z M 25 8 C 29.323 8 32.488 10.893 32.488 10.893 C 32.488 10.893 38 11.06 38 21.088 L 37.979 26 L 37.188 26 C 36.318 22.248 34.905 17.459 32.184 15.889 C 32.184 15.889 27.824 23.125 14.4 22.869 L 12.91 26 L 12 26 L 12 21.088 C 12 12.893 16.86 8 25 8 Z M 32.367 17.246 C 33.848 18.555 35.24 21.92 36.389 27 L 38.461 27 C 38.65 27.301 38.822 27.755 38.822 28.447 C 38.822 30.967 35.986 32.152 35.986 32.152 C 34.814 38.289 28.085 42 25 42 C 21.915 42 15.278 38.508 14.014 32.152 C 14.014 32.152 11.176 31.146 11.176 28.723 C 11.176 27.962 11.384 27.386 11.592 27 L 13.543 27 L 15.035 23.869 C 22.938 23.813 28.617 21.643 32.367 17.246 Z" style="fill: rgb(255, 255, 255);"/>
</svg>